<svg width="190" height="58" viewBox="0 0 190 58" fill="none" xmlns="http://www.w3.org/2000/svg">
<path d="M1 17.0421C1 17.0421 5.84824 13.4699 6.48596 13.2675C7.12369 13.0651 12.2267 23.7596 12.456 24.0252C12.6853 24.2908 17.5849 27.9131 17.9419 27.7998C18.299 27.6864 20.1861 24.5914 20.8463 24.5914C21.5064 24.5914 23.4534 31.6971 23.7506 32.1406C24.0479 32.5841 26.2169 34.4668 26.4936 34.7828C26.7703 35.0988 31.5755 28.1143 31.9796 27.7998C32.3836 27.4853 34.4249 19.4668 34.7225 18.9294C35.0202 18.392 37.0016 13.3048 37.6269 13.2675C38.2521 13.2302 40.2933 20.1958 40.5312 20.628C40.7691 21.0602 42.8448 25.0555 43.2742 25.3463C43.7035 25.6371 45.6515 27.2423 46.1785 27.2336C46.7055 27.2249 48.4994 26.525 49.2442 26.4787C49.9891 26.4324 51.2648 30.2391 51.9872 30.2533C52.7096 30.2674 57.1333 24.3265 57.6345 24.0252C58.1357 23.7238 59.982 22.379 60.2161 22.1379C60.4503 21.8967 62.4915 14.8501 63.2818 14.7774C64.0722 14.7046 65.5433 14.7774 66.1862 14.7774C66.829 14.7774 69.5284 15.3235 70.22 15.5323C70.9115 15.7411 73.2078 17.361 74.0924 17.4196C74.977 17.4782 76.8383 16.7248 77.3194 16.4759C77.8005 16.227 79.3315 6.91262 79.9011 6.85065C80.4707 6.78869 82.1969 9.02286 82.8054 9.30416C83.4139 9.58545 85.1999 3.26786 85.387 3.07604C85.5741 2.88423 87.8782 1 88.4527 1C89.0272 1 89.2886 2.26529 89.8242 3.07603C90.3598 3.88678 90.8132 5.04974 91.1957 5.15208C91.5781 5.25441 92.8617 5.01143 94.2614 5.15208C95.6611 5.29273 98.9781 14.1212 99.4246 14.2112C99.8712 14.3012 101.665 14.1392 102.49 14.2112C103.316 14.2832 107.398 20.0338 107.815 20.2506C108.232 20.4673 110.536 21.2742 110.881 21.3829C111.225 21.4917 111.391 16.8282 112.216 16.7413C113.04 16.6544 114.571 16.7413 115.12 16.7413C115.668 16.7413 117.633 19.5702 118.186 19.5723C118.738 19.5744 120.074 18.3625 120.767 18.4399C121.46 18.5173 127.752 33.638 127.896 33.9571C128.039 34.2762 129.793 37.2828 130.155 37.543C130.516 37.8032 132.6 39.3887 133.059 39.4303C133.518 39.472 136.746 37.3758 137.21 37.2776C137.674 37.1794 141.296 43.2934 141.537 43.1991C141.779 43.1047 144.781 34.7733 145.087 34.5941C145.393 34.4149 147.851 32.9961 148.153 32.8955M148.153 32.8955C148.455 32.795 147.967 32.345 148.153 32.8955ZM148.153 32.8955C148.339 33.446 150.263 27.8845 150.573 28.1301C150.883 28.3756 152.474 29.8289 153.155 29.8286C153.836 29.8284 155.366 25.6977 155.898 25.6766C156.429 25.6555 161.235 31.9191 161.706 31.8162C162.178 31.7134 163.514 30.3946 164.288 30.3064C165.062 30.2182 167.103 32.972 167.192 33.1373C167.281 33.3027 169.4 45.3042 169.935 45.3518C170.471 45.3993 174.758 44.0893 175.421 44.2194C176.085 44.3495 178.33 45.7092 178.648 45.918C178.967 46.1267 181.137 49.1919 181.391 49.5038C181.646 49.8157 183.433 57 183.973 57C184.513 57 189.279 53.7628 189.5 53.5" stroke="#FF3440" stroke-linecap="round"/>
</svg>
